<?xml version="1.0" encoding="utf-8"?>
<!-- Generator: Adobe Illustrator 22.1.0, SVG Export Plug-In . SVG Version: 6.00 Build 0)  -->
<svg version="1.1" id="Layer_1" xmlns="http://www.w3.org/2000/svg" xmlns:xlink="http://www.w3.org/1999/xlink" x="0px" y="0px"
	 viewBox="0 0 595.3 595.3" style="enable-background:new 0 0 595.3 595.3;" xml:space="preserve">
<style type="text/css">
	.st0{fill:#81A642;}
	.st1{fill:#2CA1B0;}
</style>
<path class="st0" d="M238,572.4c70.2-57.9,155.4-100.7,178.6-198.5C370.2,440.3,308,488.7,239.9,530.6c-7.8,4.8-16.1,9.1-24.6,12.8
	c-25.9,11.4-31.3,10.6-37.7-15.3c-6.9-27.8-12.6-56.6-5.8-85.8c10-42.6,40.8-65.8,77-84.1c36.9-18.7,76.7-30.3,114.4-47
	c20.3-9,40.4-18.3,57.9-32.3c4.6-3.7,8.2-7.2,13.3-0.1c40.9,57.4,62.9,138.8,25.6,211.1C424.5,558.8,345.8,594,261.8,579
	C254.1,577.6,245.7,578.3,238,572.4z"/>
<path class="st1" d="M155.2,521.6c-25-31.3-34.3-66.8-38.9-104.4c-6.3-51,16.4-92.1,43.3-132c39.8-59.2,82.1-117,110.9-183
	c11.5-26.4,20.4-53.6,29-83.3c9.4,26.2,17.3,50.8,26.9,74.5c21.2,52.2,50.3,100.2,83.5,145.5c11.2,15.3,7.9,22.1-6,31.2
	c-27.1,17.7-56.7,29.5-86.7,40.7c-32.3,12.1-64.9,23.3-94.7,41.2c-58.5,35.3-80.7,85.2-67.7,152
	C155.7,509.2,158.6,514.3,155.2,521.6z"/>
</svg>
